<svg id="svg" version="1.1" xmlns="http://www.w3.org/2000/svg" xmlns:xlink="http://www.w3.org/1999/xlink" width="400" height="400" viewBox="0, 0, 400,400"><g id="svgg"><path id="path0" d="M114.000 156.701 C 114.000 168.966,114.088 171.175,114.596 171.596 C 115.063 171.985,121.239 172.027,143.401 171.793 L 171.610 171.495 171.505 185.648 L 171.400 199.800 157.165 199.905 L 142.931 200.010 142.665 221.671 C 142.519 233.584,142.400 259.412,142.400 279.066 L 142.400 314.800 171.400 314.800 L 200.400 314.800 200.400 272.000 L 200.400 229.200 214.800 229.200 L 229.200 229.200 229.200 214.800 L 229.200 200.400 257.200 200.400 L 285.200 200.400 285.200 214.800 L 285.200 229.200 314.200 229.200 L 343.200 229.200 343.200 200.000 L 343.200 170.800 329.000 170.800 L 314.800 170.800 314.800 156.600 L 314.800 142.400 271.880 142.400 C 239.031 142.400,228.847 142.513,228.480 142.880 C 228.125 143.235,228.000 146.940,228.000 157.070 L 228.000 170.780 213.900 170.990 C 206.145 171.106,193.455 171.295,185.700 171.410 L 171.600 171.620 171.600 157.434 C 171.600 149.631,171.465 143.166,171.300 143.068 C 171.135 142.969,158.175 142.756,142.500 142.594 L 114.000 142.299 114.000 156.701 " stroke="none" fill="#fcfcfc" fill-rule="evenodd"></path><path id="path1" d="M170.800 99.600 L 170.800 114.000 156.595 114.000 L 142.390 114.000 142.495 128.300 L 142.600 142.600 157.000 142.800 L 171.400 143.000 171.505 157.300 L 171.610 171.600 157.005 171.600 L 142.400 171.600 142.400 185.600 L 142.400 199.600 128.600 199.600 L 114.800 199.600 114.800 185.680 C 114.800 175.387,114.675 171.635,114.320 171.280 C 113.965 170.925,110.124 170.800,99.520 170.800 L 85.200 170.800 85.200 185.200 L 85.200 199.600 71.000 199.600 L 56.800 199.600 56.800 228.600 L 56.800 257.600 85.800 257.600 L 114.800 257.600 114.800 243.405 L 114.800 229.210 128.700 229.105 L 142.600 229.000 142.705 214.505 L 142.810 200.010 157.105 199.905 L 171.400 199.800 171.505 185.700 L 171.610 171.600 185.372 171.600 C 192.942 171.600,199.419 171.491,199.767 171.357 C 200.328 171.142,200.400 169.515,200.400 157.157 L 200.400 143.200 214.320 143.200 C 224.613 143.200,228.365 143.075,228.720 142.720 C 229.084 142.356,229.200 135.369,229.200 113.720 L 229.200 85.200 200.000 85.200 L 170.800 85.200 170.800 99.600 M199.600 128.600 L 199.600 142.400 185.800 142.400 L 172.000 142.400 172.000 128.600 L 172.000 114.800 185.800 114.800 L 199.600 114.800 199.600 128.600 M114.000 214.200 L 114.000 228.000 100.000 228.000 L 86.000 228.000 86.000 214.200 L 86.000 200.400 100.000 200.400 L 114.000 200.400 114.000 214.200 " stroke="none" fill="#fcc404" fill-rule="evenodd"></path></g></svg>